<svg width="572" height="572" viewBox="0 0 572 572" fill="none" xmlns="http://www.w3.org/2000/svg">
<path d="M203.145 0.285156V35.1055C240.465 24.9297 319.215 7.07031 379.93 4.03516C412.82 15.7461 443.27 33.4219 469.75 56.1797C241.715 48.5 82.6055 142.25 8.14452 211.535C31.207 111.59 105.355 31.2617 203.145 0.285156ZM2.60546 242.25C-2.3047 281.598 0.605461 321.531 11.1797 359.75C112.605 244.57 266.535 150.285 550.105 168.145C542.035 148.211 531.793 129.23 519.57 111.535C460.465 102.07 349.93 102.07 198.5 149.035V120.82C115.645 143.68 31.3555 216 2.60546 242.25ZM566.895 226.18C498.32 218.145 383.5 221.895 230.465 268.32V237.25C139.395 262.25 49.2148 348.855 17.9648 381.18C28.6797 410.645 44.0351 437.965 62.9648 462.25C162.25 355.645 310.465 270.645 571.715 283.145C571.922 263.984 570.309 244.852 566.895 226V226.18ZM565.82 339.035C496.18 336.715 396 346 269.93 384.395L270.105 353.145C193.32 374.035 117.07 438.855 76.3555 478.145C100.379 504.668 129.145 526.473 161.18 542.43C237.605 457.43 350.82 387.785 549.93 391.715C556.895 374.75 562.07 357.25 565.82 339.035ZM526.535 437.605C475.105 440.105 410.105 449.93 332.965 473.32V448.5C270.82 465.465 209.215 518.32 176.895 549.57C254.477 582.52 342.785 578.715 417.25 539.215L384.93 502.07C422.43 492.25 456.895 488.855 485.465 488.855C500.82 473.5 514.75 456.18 526.535 437.605Z" fill="#ffd700"/>
</svg>
